<svg id="visual" viewBox="0 0 960 540" width="960" height="540" xmlns="http://www.w3.org/2000/svg" xmlns:xlink="http://www.w3.org/1999/xlink" version="1.1"><rect x="0" y="0" width="960" height="540" fill="#282A36"></rect><path d="M0 107L17.8 109.2C35.7 111.3 71.3 115.7 106.8 125.7C142.3 135.7 177.7 151.3 213.2 156.8C248.7 162.3 284.3 157.7 320 151.5C355.7 145.3 391.3 137.7 426.8 129.3C462.3 121 497.7 112 533.2 103.5C568.7 95 604.3 87 640 87C675.7 87 711.3 95 746.8 114C782.3 133 817.7 163 853.2 169.8C888.7 176.7 924.3 160.3 942.2 152.2L960 144L960 0L942.2 0C924.3 0 888.7 0 853.2 0C817.7 0 782.3 0 746.8 0C711.3 0 675.7 0 640 0C604.3 0 568.7 0 533.2 0C497.7 0 462.3 0 426.8 0C391.3 0 355.7 0 320 0C284.3 0 248.7 0 213.2 0C177.7 0 142.3 0 106.8 0C71.3 0 35.7 0 17.8 0L0 0Z" fill="#6272A4" stroke-linecap="round" stroke-linejoin="miter"></path></svg>