<svg id="visual" viewBox="0 0 960 540" width="960" height="540" xmlns="http://www.w3.org/2000/svg" xmlns:xlink="http://www.w3.org/1999/xlink" version="1.1"><rect x="0" y="0" width="960" height="540" fill="#282A36"></rect><path d="M0 183L26.7 176.2C53.3 169.3 106.7 155.7 160 162.2C213.3 168.7 266.7 195.3 320 217C373.3 238.7 426.7 255.3 480 252.7C533.3 250 586.7 228 640 206C693.3 184 746.7 162 800 156.5C853.3 151 906.7 162 933.3 167.5L960 173L960 0L933.3 0C906.7 0 853.3 0 800 0C746.7 0 693.3 0 640 0C586.7 0 533.3 0 480 0C426.7 0 373.3 0 320 0C266.7 0 213.3 0 160 0C106.7 0 53.3 0 26.7 0L0 0Z" fill="#49567E" stroke-linecap="round" stroke-linejoin="miter"></path></svg>